<mxfile host="app.diagrams.net" modified="2022-09-23T01:53:02.610Z" agent="5.0 (Macintosh; Intel Mac OS X 10_15_7) AppleWebKit/537.36 (KHTML, like Gecko) Chrome/105.0.0.0 Safari/537.36" etag="e5cPiIvCvCwRoxmveKGG" version="20.3.6" type="github">
  <diagram name="Page-1" id="c7558073-3199-34d8-9f00-42111426c3f3">
    <mxGraphModel dx="1554" dy="841" grid="1" gridSize="10" guides="1" tooltips="1" connect="1" arrows="1" fold="1" page="1" pageScale="1" pageWidth="826" pageHeight="1169" background="none" math="0" shadow="0">
      <root>
        <mxCell id="0" />
        <mxCell id="1" parent="0" />
        <mxCell id="FiJYtW0xMJG0avVtsO6o-99" style="edgeStyle=orthogonalEdgeStyle;rounded=0;orthogonalLoop=1;jettySize=auto;html=1;exitX=0.5;exitY=1;exitDx=0;exitDy=0;" edge="1" parent="1" source="FiJYtW0xMJG0avVtsO6o-96" target="FiJYtW0xMJG0avVtsO6o-97">
          <mxGeometry relative="1" as="geometry" />
        </mxCell>
        <mxCell id="FiJYtW0xMJG0avVtsO6o-96" value="Start" style="ellipse;whiteSpace=wrap;html=1;" vertex="1" parent="1">
          <mxGeometry x="230" y="200" width="120" height="80" as="geometry" />
        </mxCell>
        <mxCell id="FiJYtW0xMJG0avVtsO6o-100" style="edgeStyle=orthogonalEdgeStyle;rounded=0;orthogonalLoop=1;jettySize=auto;html=1;exitX=0.5;exitY=1;exitDx=0;exitDy=0;entryX=0.5;entryY=0;entryDx=0;entryDy=0;" edge="1" parent="1" source="FiJYtW0xMJG0avVtsO6o-97" target="FiJYtW0xMJG0avVtsO6o-98">
          <mxGeometry relative="1" as="geometry" />
        </mxCell>
        <mxCell id="FiJYtW0xMJG0avVtsO6o-97" value="下载导入模板，&lt;br&gt;按要求修改excel名称" style="rounded=1;whiteSpace=wrap;html=1;" vertex="1" parent="1">
          <mxGeometry x="230" y="330" width="120" height="60" as="geometry" />
        </mxCell>
        <mxCell id="FiJYtW0xMJG0avVtsO6o-102" style="edgeStyle=orthogonalEdgeStyle;rounded=0;orthogonalLoop=1;jettySize=auto;html=1;exitX=0.5;exitY=1;exitDx=0;exitDy=0;entryX=0.5;entryY=0;entryDx=0;entryDy=0;" edge="1" parent="1" source="FiJYtW0xMJG0avVtsO6o-98" target="FiJYtW0xMJG0avVtsO6o-101">
          <mxGeometry relative="1" as="geometry" />
        </mxCell>
        <mxCell id="FiJYtW0xMJG0avVtsO6o-98" value="录入收入支出数据" style="rounded=1;whiteSpace=wrap;html=1;" vertex="1" parent="1">
          <mxGeometry x="230" y="440" width="120" height="60" as="geometry" />
        </mxCell>
        <mxCell id="FiJYtW0xMJG0avVtsO6o-105" style="edgeStyle=orthogonalEdgeStyle;rounded=0;orthogonalLoop=1;jettySize=auto;html=1;exitX=0.5;exitY=1;exitDx=0;exitDy=0;entryX=0.5;entryY=0;entryDx=0;entryDy=0;" edge="1" parent="1" source="FiJYtW0xMJG0avVtsO6o-101" target="FiJYtW0xMJG0avVtsO6o-104">
          <mxGeometry relative="1" as="geometry" />
        </mxCell>
        <mxCell id="FiJYtW0xMJG0avVtsO6o-106" style="edgeStyle=orthogonalEdgeStyle;rounded=0;orthogonalLoop=1;jettySize=auto;html=1;exitX=1;exitY=0.5;exitDx=0;exitDy=0;" edge="1" parent="1" source="FiJYtW0xMJG0avVtsO6o-101" target="FiJYtW0xMJG0avVtsO6o-103">
          <mxGeometry relative="1" as="geometry" />
        </mxCell>
        <mxCell id="FiJYtW0xMJG0avVtsO6o-101" value="是否已&lt;br&gt;存在记录" style="rhombus;whiteSpace=wrap;html=1;" vertex="1" parent="1">
          <mxGeometry x="250" y="560" width="80" height="80" as="geometry" />
        </mxCell>
        <mxCell id="FiJYtW0xMJG0avVtsO6o-108" style="edgeStyle=orthogonalEdgeStyle;rounded=0;orthogonalLoop=1;jettySize=auto;html=1;exitX=0.5;exitY=1;exitDx=0;exitDy=0;entryX=0.5;entryY=0;entryDx=0;entryDy=0;" edge="1" parent="1" source="FiJYtW0xMJG0avVtsO6o-103" target="FiJYtW0xMJG0avVtsO6o-107">
          <mxGeometry relative="1" as="geometry" />
        </mxCell>
        <mxCell id="FiJYtW0xMJG0avVtsO6o-103" value="覆盖上次数据" style="rounded=1;whiteSpace=wrap;html=1;" vertex="1" parent="1">
          <mxGeometry x="400" y="570" width="120" height="60" as="geometry" />
        </mxCell>
        <mxCell id="FiJYtW0xMJG0avVtsO6o-109" style="edgeStyle=orthogonalEdgeStyle;rounded=0;orthogonalLoop=1;jettySize=auto;html=1;exitX=1;exitY=0.5;exitDx=0;exitDy=0;" edge="1" parent="1" source="FiJYtW0xMJG0avVtsO6o-104" target="FiJYtW0xMJG0avVtsO6o-107">
          <mxGeometry relative="1" as="geometry" />
        </mxCell>
        <mxCell id="FiJYtW0xMJG0avVtsO6o-104" value="插入数据" style="rounded=1;whiteSpace=wrap;html=1;" vertex="1" parent="1">
          <mxGeometry x="230" y="700" width="120" height="60" as="geometry" />
        </mxCell>
        <mxCell id="FiJYtW0xMJG0avVtsO6o-107" value="End" style="ellipse;whiteSpace=wrap;html=1;" vertex="1" parent="1">
          <mxGeometry x="400" y="690" width="120" height="80" as="geometry" />
        </mxCell>
      </root>
    </mxGraphModel>
  </diagram>
</mxfile>
